<svg id="Layer_1" data-name="Layer 1" xmlns="http://www.w3.org/2000/svg" viewBox="0 0 6911.47276 500"><defs><style>.cls-1{fill:#fff;}</style></defs><title>Norco_Wordmark_White_RGB</title><polygon class="cls-1" points="1307.03 0.717 1056.326 332.378 700.143 0.717 376.614 0.717 0 500 291.966 500 539.949 167.765 897.418 500 1221.664 500 1598.278 0.717 1307.03 0.717"/><path class="cls-1" d="M2734.1463,250.71736H2139.45481c-226.6858,0-375.8967,63.12769-461.26256,174.31851C1549.78479,594.33286,1636.58537,750,1869.01,750h601.86514c226.68575,0,375.89666-63.84505,461.26251-174.31851C3060.54515,406.38451,2966.571,250.71736,2734.1463,250.71736ZM2652.36724,516.858c-43.0416,60.97561-108.32137,85.36586-224.53367,85.36586H2042.61119c-93.25681,0-128.40746-60.25825-82.49641-123.38594,40.88952-55.95409,106.16929-80.34434,215.208-80.34434H2574.175C2668.86653,398.49354,2696.12621,456.59971,2652.36724,516.858Z" transform="translate(-100 -250)"/><path class="cls-1" d="M4241.31994,250.71736H3288.66567L2910.61689,750h332.13773l292.68293-387.37446h444.76331c53.802,0,61.693,30.12912,43.04161,55.23673-15.06456,20.08608-45.91105,38.02008-104.01726,38.02008H3528.9813L3894.1176,750h359.39746L3981.29573,549.13917h24.73009c152.79771,0,291.24821-52.36729,347.2023-126.25538C4415.63845,341.10473,4382.63989,250.71736,4241.31994,250.71736Z" transform="translate(-100 -250)"/><path class="cls-1" d="M4917.07317,406.38451h691.53515l116.21234-155.66715H4884.792c-214.49068,0-352.94118,63.845-444.76328,183.64419C4318.07747,593.61549,4419.22525,750,4622.23816,750H5376.901l116.9297-153.51506H4792.96987c-81.06169,0-114.06026-58.82353-69.58393-119.08178C4760.68867,426.47059,4823.099,406.38451,4917.07317,406.38451Z" transform="translate(-100 -250)"/><path class="cls-1" d="M6755.66714,250H6160.97561c-226.6858,0-375.8967,63.12769-461.26255,174.31851-128.40746,169.297-41.60689,324.96413,190.81779,324.96413H6492.396c226.6858,0,375.8967-63.84505,461.26256-174.31851C7082.066,405.66714,6988.09182,250,6755.66714,250Zm-81.779,266.1406c-43.04161,60.97561-108.32138,85.36586-224.53371,85.36586H6064.132c-93.25681,0-128.40746-60.25825-82.49641-123.38594,40.88953-55.95409,106.1693-80.34434,215.208-80.34434h398.85222C6690.38737,397.77618,6717.64706,455.88235,6673.88809,516.1406Z" transform="translate(-100 -250)"/></svg>