<svg width="222" height="23" viewBox="0 0 222 23" fill="none" xmlns="http://www.w3.org/2000/svg">
<path d="M185.054 5.38489C184.253 6.09805 183.503 6.86923 182.811 7.69045C186.167 11.1164 188.591 16.3462 189.406 22.403H192.635C191.985 17.0662 190.182 12.1389 187.4 8.20911C186.667 7.17292 185.881 6.23113 185.054 5.38489Z" fill="#007B7C"/>
<path d="M181.118 9.97656C180.498 10.9343 179.946 11.942 179.473 12.9941C181.395 15.4294 182.809 18.6949 183.454 22.4029H186.696C186.084 18.4185 184.671 14.7469 182.563 11.7771C182.104 11.1322 181.622 10.5316 181.118 9.97656Z" fill="#007B7C"/>
<path d="M177.461 22.4029H180.713C180.245 20.144 179.429 18.042 178.302 16.2222C177.754 18.1865 177.461 20.26 177.461 22.4029Z" fill="#007B7C"/>
<path d="M212.748 4.04154C212.327 3.73216 211.894 3.4387 211.452 3.1589C211.25 3.37273 211.05 3.58884 210.854 3.81064C208.266 6.73155 205.333 11.2005 203.781 17.4893C203.305 14.9517 202.637 12.5006 201.785 10.1711C203.471 6.33914 205.564 3.37614 207.492 1.18774C206.973 0.990965 206.445 0.813526 205.907 0.656562C204.251 2.61179 202.51 5.10617 201.006 8.18972C199.922 5.63052 198.607 3.24079 197.077 1.07286C196.827 0.719121 196.573 0.376755 196.316 0.0389404C195.131 0.224341 193.978 0.505285 192.864 0.872673C195.535 4.01538 197.716 7.9975 199.209 12.5404C198.66 14.1419 198.183 15.8617 197.811 17.7088C196.759 12.835 194.867 8.36147 192.239 4.6421C191.566 3.69007 190.858 2.80402 190.117 1.98735C189.124 2.47075 188.171 3.02695 187.266 3.65026C191.489 7.99522 194.482 14.6901 195.328 22.4041H198.674C198.923 19.7892 199.383 17.3938 199.99 15.2088C200.582 17.4995 201.002 19.9086 201.233 22.4041H204.465C205.419 13.9656 208.955 8.28527 211.994 4.85593C212.244 4.57385 212.496 4.30428 212.748 4.04154Z" fill="#007B7C"/>
<path d="M216.943 8.04303C216.614 7.63697 216.271 7.24228 215.916 6.86011C212.484 10.4328 209.615 15.6149 208.719 22.403H210.27C211.187 15.8139 214.004 11.3359 216.438 8.5924C216.605 8.40359 216.774 8.2216 216.943 8.04303Z" fill="#007B7C"/>
<path d="M214.547 22.403H216.107C216.842 18.3185 218.495 15.3248 220.106 13.2615C219.877 12.7349 219.629 12.2196 219.363 11.7146C217.127 14.3682 215.3 17.9329 214.547 22.403Z" fill="#007B7C"/>
<path d="M221.709 18.745C221.177 19.8483 220.74 21.0676 220.431 22.403H222C222 21.1575 221.9 19.9359 221.709 18.745Z" fill="#007B7C"/>
<path d="M81.1983 0.655396H76.3906V22.403H89.5834V18.1126H81.1983V0.655396Z" fill="#007B7C"/>
<path d="M116.171 0.655396H114.433V22.403H125.926V20.8162H116.171V0.655396Z" fill="#007B7C"/>
<path d="M129.669 0.655396H127.929V22.403H129.669V0.655396Z" fill="#007B7C"/>
<path d="M157.785 20.8162V12.0376H167.244V10.485H157.785V2.2421H167.951V0.655396H156.046V22.403H168.304V20.8162H157.785Z" fill="#007B7C"/>
<path d="M150.237 20.8162H149.883L137.487 0.655396H134.361V22.403H136.091V2.2421H136.514L148.911 22.403H151.971V0.655396H150.237V20.8162Z" fill="#007B7C"/>
<path d="M21.7167 18.1126H21.3573L17.8325 1.25141H12.829L9.67797 18.1126H9.21343L4.92182 0.655396H0L5.27777 22.403H12.651L15.3027 9.15764L18.1582 22.403H25.6781L30.3682 0.655396H25.4251L21.7167 18.1126Z" fill="#007B7C"/>
<path d="M108.23 3.69464C105.949 1.42776 102.955 0.467771 99.5224 0.476871H91.5771V22.5224H99.5224C101.458 22.5224 103.148 22.2199 104.594 21.6136C107.322 20.4955 109.394 18.3845 110.414 15.7002C110.983 14.2238 111.177 12.6951 111.132 11.1425C111.128 8.35467 110.195 5.67035 108.23 3.69464ZM105.67 14.4194C105.062 16.0311 103.937 17.1754 102.342 17.7851C101.541 18.0933 100.632 18.2469 99.6153 18.2469H96.3848V4.75131H99.6153C100.632 4.75131 101.541 4.89008 102.342 5.16875C103.94 5.71812 105.063 6.85782 105.67 8.44567C106.269 10.1325 106.283 12.7065 105.67 14.4194Z" fill="#007B7C"/>
<path d="M46.8476 0.968233C44.1119 -0.323881 39.6445 -0.321607 36.9233 0.968233C34.21 2.18073 32.1761 4.39302 31.1766 7.13535C30.609 8.6686 30.4154 10.2144 30.459 11.7977C30.4971 15.9606 32.9597 20.1566 36.836 21.9571C39.5863 23.3482 44.2014 23.3471 46.9505 21.9571C50.8269 20.1577 53.2895 15.9606 53.3275 11.7977C53.4518 8.82215 52.4555 5.77613 50.425 3.54564C49.4669 2.47304 48.2747 1.61429 46.8476 0.968233ZM41.9067 18.5494C37.8311 18.5494 35.4906 15.2918 35.4906 11.5099C35.4906 7.58804 37.6867 4.47036 41.9067 4.47036C45.4842 4.47036 48.3229 6.97725 48.3229 11.5099C48.3229 15.3146 45.9353 18.5494 41.9067 18.5494Z" fill="#007B7C"/>
<path d="M71.8413 12.2583C72.6383 11.1254 72.9718 9.4443 72.9103 7.77456C72.9103 6.16624 72.5588 4.82067 71.8547 3.73784C70.1891 1.24006 67.2922 0.499594 64.2028 0.475708H55.7886V22.403H60.5973V15.6694C60.6925 15.6683 64.1367 15.6717 64.2386 15.6683L68.7776 22.403H74.3475L68.8817 14.6162C70.1511 14.0895 71.1383 13.3047 71.8413 12.2583ZM67.4646 9.93567C66.8322 11.0594 65.7587 11.594 64.4446 11.5895H60.5973V4.75242H64.4446C65.1475 4.75242 65.7542 4.76266 66.2624 5.05043C66.7706 5.3382 67.1713 5.74539 67.4646 6.27202C68.0411 7.27296 68.0612 8.9154 67.4646 9.93567Z" fill="#007B7C"/>
</svg>
